<?xml version="1.0" encoding="UTF-8"?>
<svg id="Camada_1" data-name="Camada 1" xmlns="http://www.w3.org/2000/svg" viewBox="0 0 400 400">
  <defs>
    <style>
      .cls-1 {
        fill: #ff4e45;
      }

      .cls-2 {
        fill: #fff;
      }
    </style>
  </defs>
  <path class="cls-2" d="M29.98,223.58c-13.19,0-22.94-10.4-22.94-24.1s9.75-23.13,22.94-23.13h25.6v8.25h-25.6c-8.45,0-14.68,6.3-14.68,15.27s6.17,15.46,14.68,15.46h25.6v8.25h-25.6Z"/>
  <path class="cls-2" d="M106.12,223.58l-11.96-13.12h-17.67v-7.28h19.69c5.91,0,9.03-3.38,9.03-9.49s-3.38-9.1-9.03-9.1h-25.73v38.98h-8.19v-47.23h33.92c10.79,0,17.15,6.69,17.15,17.22,0,7.8-3.64,13.32-9.75,15.66l14.23,14.36h-11.7Z"/>
  <path class="cls-2" d="M142.57,223.58c-13.19,0-22.94-10.4-22.94-24.1s9.75-23.13,22.94-23.13h11.5c13.64,0,23.13,9.42,23.13,23.13s-9.68,24.1-23.13,24.1h-11.5ZM154.07,215.33c8.71,0,14.88-6.56,14.88-15.46s-6.17-15.27-14.88-15.27h-11.5c-8.45,0-14.68,6.3-14.68,15.27s6.17,15.46,14.68,15.46h11.5Z"/>
  <path class="cls-2" d="M214.69,207.8l-7.34,13.84c-.91,1.75-2.54,2.6-4.22,2.6-1.82,0-3.31-.84-4.29-2.6l-24.43-45.29h9.88l19.1,36.32,7.15-12.86-12.28-23.46h9.94l18.26,36.32,19.23-36.32h9.23l-24.43,45.29c-.97,1.75-2.53,2.6-4.29,2.6s-3.31-.84-4.22-2.6l-7.28-13.84Z"/>
  <path class="cls-2" d="M266.14,189.02v34.57h-7.86v-42.88c0-3.05,1.62-4.94,4.22-4.94,1.23,0,2.27.46,3.51,1.69l33.33,33.07v-34.56h7.86v43.27c0,3.12-1.69,4.94-4.09,4.94-1.37,0-2.6-.58-3.77-1.75l-33.2-33.4Z"/>
  <path class="cls-1" d="M334.74,223.58v-47.23h8.25v47.23h-8.25Z"/>
  <path class="cls-1" d="M366.77,223.58v-38.98h-17.93v-8.25h44.12v8.25h-17.93v38.98h-8.25Z"/>
</svg>