<?xml version="1.0" encoding="UTF-8"?>
<svg id="Camada_1" data-name="Camada 1" xmlns="http://www.w3.org/2000/svg" viewBox="0 0 100 100">
  <defs>
    <style>
      .cls-1 {
        fill: #ff4e45;
      }

      .cls-2 {
        fill: #fff;
      }
    </style>
  </defs>
  <path class="cls-2" d="M13.29,55.09c-2.85,0-4.95-2.24-4.95-5.2s2.1-4.99,4.95-4.99h5.52v1.78h-5.52c-1.82,0-3.17,1.36-3.17,3.29s1.33,3.34,3.17,3.34h5.52v1.78h-5.52Z"/>
  <path class="cls-2" d="M29.73,55.09l-2.58-2.83h-3.81v-1.57h4.25c1.28,0,1.95-.73,1.95-2.05s-.73-1.96-1.95-1.96h-5.55v8.41h-1.77v-10.19h7.32c2.33,0,3.7,1.44,3.7,3.72,0,1.68-.79,2.88-2.1,3.38l3.07,3.1h-2.52Z"/>
  <path class="cls-2" d="M37.6,55.09c-2.85,0-4.95-2.24-4.95-5.2s2.1-4.99,4.95-4.99h2.48c2.94,0,4.99,2.03,4.99,4.99s-2.09,5.2-4.99,5.2h-2.48ZM40.08,53.31c1.88,0,3.21-1.42,3.21-3.34s-1.33-3.29-3.21-3.29h-2.48c-1.82,0-3.17,1.36-3.17,3.29s1.33,3.34,3.17,3.34h2.48Z"/>
  <path class="cls-2" d="M53.17,51.68l-1.58,2.99c-.2.38-.55.56-.91.56-.39,0-.72-.18-.93-.56l-5.27-9.77h2.13l4.12,7.84,1.54-2.78-2.65-5.06h2.15l3.94,7.84,4.15-7.84h1.99l-5.27,9.77c-.21.38-.55.56-.93.56s-.72-.18-.91-.56l-1.57-2.99Z"/>
  <path class="cls-2" d="M64.28,47.63v7.46h-1.7v-9.25c0-.66.35-1.07.91-1.07.27,0,.49.1.76.36l7.19,7.14v-7.46h1.7v9.34c0,.67-.36,1.07-.88,1.07-.29,0-.56-.13-.81-.38l-7.17-7.21Z"/>
  <path class="cls-1" d="M79.1,55.09v-10.19h1.78v10.19h-1.78Z"/>
  <path class="cls-1" d="M86.01,55.09v-8.41h-3.87v-1.78h9.52v1.78h-3.87v8.41h-1.78Z"/>
</svg>