<?xml version="1.0" encoding="UTF-8"?>
<svg id="Camada_1" data-name="Camada 1" xmlns="http://www.w3.org/2000/svg" viewBox="0 0 300 300">
  <defs>
    <style>
      .cls-1 {
        fill: #ff4e45;
      }

      .cls-2 {
        fill: #fff;
      }
    </style>
  </defs>
  <path class="cls-2" d="M21.83,167.78c-9.94,0-17.29-7.84-17.29-18.17s7.35-17.44,17.29-17.44h19.3v6.22h-19.3c-6.37,0-11.07,4.75-11.07,11.51s4.65,11.66,11.07,11.66h19.3v6.22h-19.3Z"/>
  <path class="cls-2" d="M79.23,167.78l-9.01-9.89h-13.32v-5.48h14.84c4.46,0,6.81-2.55,6.81-7.15s-2.55-6.86-6.81-6.86h-19.4v29.39h-6.17v-35.61h25.57c8.13,0,12.93,5.04,12.93,12.98,0,5.88-2.74,10.04-7.35,11.8l10.73,10.82h-8.82Z"/>
  <path class="cls-2" d="M106.71,167.78c-9.94,0-17.29-7.84-17.29-18.17s7.35-17.44,17.29-17.44h8.67c10.29,0,17.44,7.1,17.44,17.44s-7.3,18.17-17.44,18.17h-8.67ZM115.38,161.56c6.56,0,11.22-4.95,11.22-11.66s-4.65-11.51-11.22-11.51h-8.67c-6.37,0-11.07,4.75-11.07,11.51s4.65,11.66,11.07,11.66h8.67Z"/>
  <path class="cls-2" d="M161.07,155.88l-5.54,10.43c-.69,1.32-1.91,1.96-3.18,1.96-1.37,0-2.5-.64-3.23-1.96l-18.42-34.14h7.45l14.4,27.38,5.39-9.7-9.26-17.68h7.49l13.76,27.38,14.5-27.38h6.96l-18.42,34.14c-.73,1.32-1.91,1.96-3.23,1.96s-2.5-.64-3.18-1.96l-5.49-10.43Z"/>
  <path class="cls-2" d="M199.86,141.72v26.06h-5.93v-32.33c0-2.3,1.22-3.72,3.18-3.72.93,0,1.71.34,2.64,1.27l25.13,24.93v-26.06h5.93v32.62c0,2.35-1.27,3.72-3.09,3.72-1.03,0-1.96-.44-2.84-1.32l-25.03-25.18Z"/>
  <path class="cls-1" d="M251.57,167.78v-35.61h6.22v35.61h-6.22Z"/>
  <path class="cls-1" d="M275.72,167.78v-29.39h-13.52v-6.22h33.26v6.22h-13.52v29.39h-6.22Z"/>
</svg>