<?xml version="1.0" encoding="UTF-8"?>
<svg id="Camada_1" data-name="Camada 1" xmlns="http://www.w3.org/2000/svg" viewBox="0 0 200 200">
  <defs>
    <style>
      .cls-1 {
        fill: #ff4e45;
      }

      .cls-2 {
        fill: #fff;
      }
    </style>
  </defs>
  <path class="cls-2" d="M15.54,111.72c-6.55,0-11.39-5.16-11.39-11.97s4.84-11.49,11.39-11.49h12.71v4.1h-12.71c-4.2,0-7.29,3.13-7.29,7.58s3.07,7.68,7.29,7.68h12.71v4.1h-12.71Z"/>
  <path class="cls-2" d="M53.36,111.72l-5.94-6.52h-8.78v-3.61h9.78c2.94,0,4.49-1.68,4.49-4.71s-1.68-4.52-4.49-4.52h-12.78v19.36h-4.07v-23.46h16.85c5.36,0,8.52,3.32,8.52,8.55,0,3.87-1.81,6.62-4.84,7.78l7.07,7.13h-5.81Z"/>
  <path class="cls-2" d="M71.47,111.72c-6.55,0-11.39-5.16-11.39-11.97s4.84-11.49,11.39-11.49h5.71c6.78,0,11.49,4.68,11.49,11.49s-4.81,11.97-11.49,11.97h-5.71ZM77.18,107.62c4.32,0,7.39-3.26,7.39-7.68s-3.07-7.58-7.39-7.58h-5.71c-4.2,0-7.29,3.13-7.29,7.58s3.07,7.68,7.29,7.68h5.71Z"/>
  <path class="cls-2" d="M107.29,103.87l-3.65,6.87c-.45.87-1.26,1.29-2.1,1.29-.9,0-1.65-.42-2.13-1.29l-12.13-22.49h4.91l9.49,18.04,3.55-6.39-6.1-11.65h4.94l9.07,18.04,9.55-18.04h4.58l-12.13,22.49c-.48.87-1.26,1.29-2.13,1.29s-1.65-.42-2.1-1.29l-3.61-6.87Z"/>
  <path class="cls-2" d="M132.85,94.55v17.17h-3.9v-21.3c0-1.52.81-2.45,2.1-2.45.61,0,1.13.23,1.74.84l16.56,16.43v-17.17h3.91v21.49c0,1.55-.84,2.45-2.03,2.45-.68,0-1.29-.29-1.87-.87l-16.49-16.59Z"/>
  <path class="cls-1" d="M166.94,111.72v-23.46h4.1v23.46h-4.1Z"/>
  <path class="cls-1" d="M182.85,111.72v-19.36h-8.91v-4.1h21.91v4.1h-8.91v19.36h-4.1Z"/>
</svg>