<?xml version="1.0" encoding="UTF-8"?>
<svg id="Camada_2" data-name="Camada 2" xmlns="http://www.w3.org/2000/svg" xmlns:xlink="http://www.w3.org/1999/xlink" viewBox="0 0 31.58 20.38">
  <defs>
    <style>
      .cls-1 {
        fill: url(#Gradiente_sem_nome_46);
      }

      .cls-2 {
        fill: url(#Gradiente_sem_nome_45-2);
      }

      .cls-3 {
        fill: url(#Gradiente_sem_nome_45);
      }

      .cls-4 {
        fill: url(#Gradiente_sem_nome_46-2);
      }
    </style>
    <linearGradient id="Gradiente_sem_nome_45" data-name="Gradiente sem nome 45" x1="-41.04" y1="9.07" x2="-45.48" y2="20.46" gradientTransform="translate(68.1 -4.78) rotate(-.59)" gradientUnits="userSpaceOnUse">
      <stop offset="0" stop-color="#c79919"/>
      <stop offset=".47" stop-color="#f34b47"/>
      <stop offset=".56" stop-color="#ef4a47"/>
      <stop offset=".64" stop-color="#e64849"/>
      <stop offset=".71" stop-color="#d5444c"/>
      <stop offset=".77" stop-color="#be3f50"/>
      <stop offset=".83" stop-color="#a03856"/>
      <stop offset=".89" stop-color="#7c2f5d"/>
      <stop offset=".94" stop-color="#502565"/>
      <stop offset=".99" stop-color="#1f1a6e"/>
      <stop offset="1" stop-color="#191970"/>
    </linearGradient>
    <linearGradient id="Gradiente_sem_nome_46" data-name="Gradiente sem nome 46" x1="17.73" y1="6.95" x2="24.79" y2="22.04" gradientUnits="userSpaceOnUse">
      <stop offset="0" stop-color="#c79919"/>
      <stop offset=".47" stop-color="#f34b47"/>
      <stop offset=".53" stop-color="#cf424d"/>
      <stop offset=".65" stop-color="#8f3459"/>
      <stop offset=".77" stop-color="#5c2863"/>
      <stop offset=".87" stop-color="#37206a"/>
      <stop offset=".95" stop-color="#211a6e"/>
      <stop offset="1" stop-color="#191970"/>
    </linearGradient>
    <linearGradient id="Gradiente_sem_nome_45-2" data-name="Gradiente sem nome 45" x1="-119.85" y1="8.25" x2="-124.28" y2="19.64" gradientTransform="translate(-115.28 -4.78) rotate(-179.41) scale(1 -1)" xlink:href="#Gradiente_sem_nome_45"/>
    <linearGradient id="Gradiente_sem_nome_46-2" data-name="Gradiente sem nome 46" x1="-61.12" y1="7.03" x2="-54.06" y2="22.13" gradientTransform="translate(-47.18) rotate(-180) scale(1 -1)" xlink:href="#Gradiente_sem_nome_46"/>
  </defs>
  <g id="Camada_1-2" data-name="Camada 1">
    <g>
      <path class="cls-3" d="M23.82,18.63L31.58.18l-6,2.82s-1.6,4.05-5,11.9l3.23,3.71"/>
      <path class="cls-1" d="M21.35,13.15c-.79-1.68-1.51-3.49-2.47-5.82-1.49-3.61-3.09-7.32-3.09-7.32l-2.21,5.47c.03.1,2.38,5.82,2.38,5.82,1.28,2.83,3.05,7.25,3.09,7.32,0,.01,0-.01,0,0,.33.92,1.06,1.68,2.38,1.68,1.59,0,2.01-.72,2.29-1.32.39-.83,1.53-3.73,1.76-4.32,0,0-1.15,1.06-2.56.44-.9-.4-1.34-1.42-1.58-1.94Z"/>
      <path class="cls-2" d="M7.76,18.63L0,.18l6.08,2.83s1.63,4.06,5.03,11.91l-3.34,3.7"/>
      <path class="cls-4" d="M10.32,13.24c.79-1.68,1.51-3.49,2.47-5.82C14.29,3.81,15.88.09,15.88.09l2.21,5.47c-.03.1-2.38,5.82-2.38,5.82-1.28,2.83-3.05,7.25-3.09,7.32,0,.01,0-.01,0,0-.33.92-1.06,1.68-2.38,1.68-1.59,0-2.01-.72-2.29-1.32-.39-.83-1.53-3.73-1.76-4.32,0,0,1.15,1.06,2.56.44.9-.4,1.34-1.42,1.58-1.94Z"/>
    </g>
  </g>
</svg>